<?xml version="1.0" encoding="UTF-8" standalone="no"?>
<!DOCTYPE svg PUBLIC "-//W3C//DTD SVG 20010904//EN" "http://www.w3.org/TR/2001/REC-SVG-20010904/DTD/svg10.dtd">
<svg version="1.0" xmlns="http://www.w3.org/2000/svg" width="468pt" height="532pt" viewBox="0 0 468 532" preserveAspectRatio="xMidYMid meet">
<metadata>
Created by potrace 1.7, written by Peter Selinger 2001-2005
</metadata>
<g transform="translate(0, 532) scale(0.454369, -0.454369)" fill="#000000" stroke="none">
<path d="M473 1158 c-12 -6 -24 -23 -27 -43 -4 -20 -16 -37 -31 -45 -27 -15 -49 -69 -43 -105 3 -15 0 -26 -10 -30 -11 -4 -13 -18 -8 -73 10 -95 14 -104 41 -100 13 2 25 -1 27 -6 4 -10 -6 -16 -89 -52 -77 -33 -85 -42 -94 -108 -4 -28 -15 -103 -24 -166 -9 -63 -14 -122 -12 -130 3 -11 -16 -30 -58 -59 -96 -64 -135 -106 -135 -145 0 -40 29 -73 72 -81 18 -3 223 -5 455 -3 410 3 422 4 450 24 33 25 41 69 19 112 -8 16 -50 52 -96 82 -67 44 -80 57 -76 74 4 17 -12 145 -41 324 -6 39 -28 55 -120 87 -37 13 -69 29 -72 36 -2 7 4 9 17 5 29 -10 41 17 49 109 4 53 3 75 -6 75 -6 0 -11 18 -11 45 0 39 -5 51 -35 81 -19 19 -35 43 -35 54 0 39 -60 61 -107 38z m79 -58 c10 -19 31 -50 49 -68 25 -27 29 -39 24 -60 -9 -35 -10 -36 -35 -22 -20 11 -134 10 -170 0 -11 -4 -16 4 -18 27 -3 31 3 41 52 81 9 7 16 24 16 37 0 25 25 46 50 42 8 -1 23 -18 32 -37z m38 -190 c23 -23 36 -25 43 -7 8 18 8 -35 1 -71 -4 -21 -11 -29 -20 -25 -23 8 -44 -17 -44 -52 0 -26 5 -35 28 -43 113 -42 145 -58 158 -77 8 -12 19 -58 24 -101 5 -44 14 -105 20 -137 13 -67 8 -90 -23 -109 -27 -17 -121 -54 -161 -63 -27 -6 -28 -5 -16 10 11 13 11 21 2 36 -13 21 -5 24 31 10 21 -8 30 -3 71 38 l46 47 -26 77 c-17 51 -31 77 -41 77 -10 0 -13 -5 -8 -17 4 -10 13 -40 20 -67 8 -26 16 -51 20 -54 3 -3 -9 -20 -26 -38 -29 -30 -35 -32 -80 -27 -42 5 -50 3 -73 -20 -14 -14 -26 -22 -26 -17 0 5 -11 17 -26 26 -20 14 -32 15 -58 7 -30 -9 -37 -7 -70 21 l-37 31 21 59 c23 69 25 86 7 86 -11 0 -23 -32 -53 -140 -2 -9 15 -35 41 -60 42 -42 47 -44 75 -33 31 12 39 6 18 -15 -8 -8 -8 -15 2 -27 27 -32 -37 -15 -158 42 -47 22 -53 41 -37 104 8 30 15 71 15 91 0 21 4 57 10 80 5 24 12 54 14 68 4 19 20 32 61 53 30 15 62 27 70 27 22 0 45 29 45 59 0 32 -22 56 -45 47 -12 -4 -15 2 -15 28 0 19 -3 42 -6 50 -4 11 -2 15 8 11 8 -3 23 3 33 15 26 29 136 29 165 0z m-270 -689 c43 -20 69 -25 120 -24 36 0 101 1 146 1 71 1 89 5 147 33 l65 33 80 -53 c99 -64 114 -81 110 -117 -6 -53 -16 -54 -473 -54 -452 0 -468 2 -472 50 -3 31 9 47 70 91 26 18 62 44 79 57 35 25 42 24 128 -17z"/>
</g>
</svg>